<?xml version="1.0" standalone="no"?>
<!DOCTYPE svg PUBLIC "-//W3C//DTD SVG 20010904//EN"
 "http://www.w3.org/TR/2001/REC-SVG-20010904/DTD/svg10.dtd">
<svg version="1.0" xmlns="http://www.w3.org/2000/svg"
 width="828.000000pt" height="828.000000pt" viewBox="0 0 828.000000 828.000000"
 preserveAspectRatio="xMidYMid meet">
<metadata>
Created by potrace 1.11, written by Peter Selinger 2001-2013
</metadata>
<g transform="translate(0.000000,828.000000) scale(0.100000,-0.100000)"
fill="#000000" stroke="none">
<path d="M3972 8266 c-42 -15 -98 -60 -116 -94 -83 -160 79 -341 247 -275 152
60 167 272 24 352 -44 25 -110 32 -155 17z"/>
<path d="M4457 7790 c-132 -39 -181 -220 -87 -318 78 -82 193 -89 278 -17 53
45 80 151 54 216 -15 37 -60 87 -95 106 -35 18 -110 24 -150 13z"/>
<path d="M3745 7378 c-81 -28 -135 -102 -136 -186 -3 -110 92 -203 202 -197
107 5 189 89 191 195 0 50 -36 124 -75 154 -33 25 -96 46 -132 45 -11 0 -33
-5 -50 -11z"/>
<path d="M3232 6665 c-123 -29 -255 -115 -341 -221 -41 -52 -92 -170 -105
-248 -23 -132 -7 -243 52 -366 48 -99 158 -210 257 -261 l70 -36 -1 -674 -1
-674 -111 -185 c-61 -102 -132 -221 -158 -265 -25 -44 -92 -156 -148 -250 -55
-93 -105 -178 -111 -188 -5 -9 -59 -99 -119 -200 -92 -154 -167 -280 -211
-355 -5 -10 -33 -55 -61 -102 -28 -47 -167 -281 -309 -520 -142 -239 -290
-489 -330 -555 -114 -190 -156 -296 -178 -450 -30 -206 5 -403 105 -595 104
-199 282 -362 493 -449 39 -17 85 -33 101 -36 16 -2 54 -12 84 -20 48 -13 304
-15 1930 -14 l1875 0 100 25 c123 30 110 26 169 52 27 12 51 22 53 22 12 0
173 112 216 150 26 23 76 79 111 124 170 220 239 479 200 748 -23 156 -60 245
-199 479 -54 90 -106 178 -115 194 -10 17 -46 77 -80 135 -35 58 -118 197
-185 310 -67 113 -179 302 -250 420 -70 118 -136 229 -145 245 -10 17 -72 121
-139 233 -66 111 -121 207 -121 212 0 6 -3 10 -7 10 -5 0 -13 10 -19 23 -6 12
-82 141 -169 287 -248 415 -279 469 -295 498 -12 23 -14 128 -15 700 l0 672
33 11 c17 6 60 29 93 52 311 207 356 641 92 902 -63 63 -147 115 -236 148
l-62 22 -880 2 c-690 1 -891 -1 -933 -12z"/>
</g>
</svg>
